<svg width="30" height="30" viewBox="0 0 30 30" fill="none" xmlns="http://www.w3.org/2000/svg">
<path d="M15 28.4375C7.5875 28.4375 1.5625 22.4125 1.5625 15C1.5625 7.5875 7.5875 1.5625 15 1.5625C22.4125 1.5625 28.4375 7.5875 28.4375 15C28.4375 22.4125 22.4125 28.4375 15 28.4375ZM15 3.4375C8.625 3.4375 3.4375 8.625 3.4375 15C3.4375 21.375 8.625 26.5625 15 26.5625C21.375 26.5625 26.5625 21.375 26.5625 15C26.5625 8.625 21.375 3.4375 15 3.4375Z" fill="#25262A"/>
<path d="M19.6375 19.9125C19.475 19.9125 19.3125 19.875 19.1625 19.775L15.2875 17.4625C14.325 16.8875 13.6125 15.625 13.6125 14.5125V9.38745C13.6125 8.87495 14.0375 8.44995 14.55 8.44995C15.0625 8.44995 15.4875 8.87495 15.4875 9.38745V14.5125C15.4875 14.9625 15.8625 15.625 16.25 15.85L20.125 18.1625C20.575 18.425 20.7125 19 20.45 19.45C20.2625 19.75 19.95 19.9125 19.6375 19.9125Z" fill="#25262A"/>
</svg>
