<svg width="125" height="100" viewBox="0 0 125 100" fill="none" xmlns="http://www.w3.org/2000/svg">
<path d="M32.1117 0.354506C31.0089 0.350485 30.1116 1.24463 30.1078 2.34823V14.3331H22.139C21.2583 14.331 20.4774 14.9062 20.2208 15.7492L8.6691 54.014H6.16227C2.89954 54.014 0.538713 57.3734 1.62423 60.346L7.72173 84.5071C5.68878 84.9896 3.66547 85.4894 1.67101 86.0404C0.605595 86.3183 -0.0354043 87.4081 0.240206 88.4748C0.517794 89.5409 1.60706 90.1784 2.67297 89.9026C32.5633 82.1063 47.049 84.0797 61.9364 87.0275C76.8238 89.9754 92.184 93.9827 122.202 89.9495C123.291 89.8007 124.058 88.7969 123.913 87.7064C123.772 86.6103 122.767 85.8379 121.672 85.9818C115.558 86.8032 110.125 87.2752 105.169 87.5033L121.57 52.3559C123.208 49.7496 121.146 46.02 117.945 46.02H105.406L101.87 35.3304C101.601 34.5152 100.841 33.9651 99.9834 33.961H89.2933L83.687 15.7492C83.4321 14.9115 82.6597 14.3369 81.7845 14.3331H72.0301V9.33551H79.0126C80.1165 9.34151 81.0161 8.45055 81.0204 7.34581C81.0248 6.23501 80.1226 5.33407 79.0126 5.34055H70.0417C68.9332 5.33659 68.0335 6.23651 68.0378 7.34581V14.3331H56.0729V8.34844C56.0771 7.23908 55.1775 6.33886 54.069 6.34318H40.1001C38.9915 6.33922 38.0919 7.23908 38.0962 8.34844V14.3331H34.1V2.34823C34.0962 1.25033 33.2088 0.358286 32.1117 0.354506ZM42.0884 10.3381H52.0806V14.3331H42.0884V10.3381ZM23.6088 18.3321H80.3108L85.1179 33.961H18.8875L23.6088 18.3321ZM28.1195 24.3167C27.0171 24.3207 26.1269 25.2189 26.1312 26.3222C26.1354 27.4192 27.0232 28.3076 28.1195 28.3119H34.1C35.204 28.3179 36.1036 27.4269 36.1078 26.3222C36.1122 25.2113 35.2101 24.3102 34.1 24.3167H28.1195ZM42.0884 24.3167C40.986 24.3207 40.0958 25.2189 40.1001 26.3222C40.1043 27.4192 40.992 28.3076 42.0884 28.3119H48.0845C49.1809 28.3079 50.0686 27.4192 50.0728 26.3222C50.0772 25.2189 49.1869 24.321 48.0845 24.3167H42.0884ZM56.0729 24.3167C54.9643 24.3127 54.0646 25.2128 54.069 26.3222C54.0733 27.4253 54.9704 28.3162 56.0729 28.3119H62.0534C63.1497 28.3079 64.0374 27.4192 64.0417 26.3222C64.0461 25.2189 63.1558 24.321 62.0534 24.3167H56.0729ZM70.0417 24.3167C68.9332 24.3127 68.0335 25.2128 68.0378 26.3222C68.0422 27.4253 68.9393 28.3162 70.0417 28.3119H76.0223C77.1247 28.3159 78.0219 27.4253 78.0262 26.3222C78.0306 25.2128 77.1308 24.3124 76.0223 24.3167H70.0417ZM17.6828 37.956H98.537L101.204 46.02H89.9912C87.056 46.02 84.176 46.7004 81.5506 48.0138L72.724 52.438C70.6529 53.4742 68.3612 54.014 66.0456 54.014H12.8329L17.6828 37.956ZM22.139 44.2957C21.0335 44.2897 20.1333 45.1831 20.1311 46.2894C20.1268 47.4002 21.0289 48.301 22.139 48.2945H28.1195C29.2219 48.2905 30.1121 47.3925 30.1078 46.2894C30.1056 45.1908 29.2174 44.3 28.1195 44.2957H22.139ZM36.1078 44.2957C35.0024 44.2897 34.1022 45.1831 34.1 46.2894C34.0956 47.4002 34.9978 48.301 36.1078 48.2945H42.0884C43.1969 48.2985 44.0966 47.3987 44.0923 46.2894C44.0901 45.1847 43.1923 44.2914 42.0884 44.2957H36.1078ZM50.0728 44.2957C48.975 44.2997 48.0867 45.1908 48.0845 46.2894C48.0801 47.3925 48.9704 48.2902 50.0728 48.2945H56.0729C57.1753 48.2905 58.0655 47.3925 58.0612 46.2894C58.059 45.1908 57.1707 44.3 56.0729 44.2957H50.0728ZM64.0417 44.2957C62.9439 44.2997 62.0555 45.1908 62.0534 46.2894C62.049 47.3925 62.9393 48.2902 64.0417 48.2945H70.0417C71.1442 48.2905 72.0344 47.3925 72.0301 46.2894C72.0279 45.1908 71.1396 44.3 70.0417 44.2957H64.0417ZM89.9912 50.019L117.98 50.2921L100.701 87.6399C84.3332 87.9057 73.683 85.2937 62.7162 83.1221C45.3157 79.2337 27.9484 80.2138 11.6282 83.6567C9.55492 75.468 7.50483 67.251 5.41372 59.0859C5.20248 58.5044 5.54411 58.0091 6.16227 58.0091H66.0456C68.9808 58.0091 71.8803 57.3176 74.5057 56.0038L83.3323 51.5954C85.4033 50.559 87.6756 49.9964 89.9912 50.019ZM89.9912 54.8527C88.8884 54.8567 87.9985 55.7545 88.0029 56.8581V71.1021C85.9621 70.6388 84.4781 69.3264 83.2036 65.5855C83.5804 65.2111 85.5969 65.7853 85.5974 65.2542L85.5934 62.847H82.0222C80.9195 62.843 80.0183 63.7332 80.0144 64.8367C80.0144 70.329 84.5026 74.8359 89.9911 74.8359C95.4796 74.8359 99.9834 70.329 99.9833 64.8367C99.9793 63.7332 99.0822 62.8428 97.9794 62.847H94.4044L94.4004 65.3361C94.3995 65.8678 96.0157 65.3722 96.3926 65.7538C95.868 69.3591 94.3185 70.8189 91.9949 71.2158V56.8587C91.9993 55.7494 91.0998 54.8484 89.9912 54.8527ZM24.1273 62.0041C21.946 62.0041 20.1311 63.8201 20.1311 66.0029V69.9978C20.1312 72.1806 21.9461 73.9772 24.1273 73.9772H28.1195C30.3007 73.9772 32.1117 72.1806 32.1117 69.9978V66.0029C32.1118 63.8201 30.3007 62.0041 28.1195 62.0041H24.1273ZM40.1001 62.0041C37.9188 62.0041 36.1078 63.8201 36.1078 66.0029V69.9978C36.1079 72.1806 37.9189 73.9772 40.1001 73.9772H44.0923C46.2735 73.9772 48.0845 72.1806 48.0845 69.9978V66.0029C48.0846 63.8201 46.2735 62.0041 44.0923 62.0041H40.1001ZM56.0729 62.0041C53.8916 62.0041 52.0806 63.8201 52.0806 66.0029V69.9978C52.0807 72.1806 53.8917 73.9772 56.0729 73.9772H60.0495C62.2307 73.9772 64.0417 72.1806 64.0417 69.9978V66.0029C64.0418 63.8201 62.2307 62.0041 60.0495 62.0041H56.0729ZM24.1273 66.0029H28.1195V69.9978H24.1273V66.0029ZM40.1001 66.0029H44.0923V69.9978H40.1001V66.0029ZM56.0729 66.0029H60.0495V69.9978H56.0729V66.0029ZM1.67101 94.0342C0.605632 94.312 -0.035356 95.3982 0.240206 96.4649C0.517764 97.531 1.60703 98.1724 2.67297 97.8966C32.5633 90.1002 47.049 92.0733 61.9364 95.0213C76.8238 97.9691 92.184 101.973 122.202 97.9396C123.291 97.7908 124.058 96.7908 123.913 95.7001C123.772 94.604 122.767 93.8279 121.672 93.9719C92.1696 97.9359 77.7685 94.0768 62.7162 91.0964C40.9431 86.4499 22.358 88.6538 1.67101 94.0342Z" fill="#216185"/>
</svg>
