<svg width="32" height="32" viewBox="0 0 32 32" fill="none" xmlns="http://www.w3.org/2000/svg">
<rect width="32" height="32" rx="16" fill="#9F9F9F"/>
<path d="M17.6344 23.8906C17.5562 23.8938 17.5063 23.9 17.4563 23.9C16.3875 23.9 15.3219 23.8969 14.2531 23.9031C14.1031 23.9031 14.0625 23.8625 14.0625 23.7125C14.0656 21.225 14.0656 18.7344 14.0656 16.2469C14.0656 16.1813 14.0656 16.1156 14.0656 16.0313C13.4844 16.0313 12.9187 16.0313 12.3438 16.0313C12.3438 15.1438 12.3438 14.2719 12.3438 13.375C12.4031 13.375 12.4594 13.375 12.5125 13.375C12.9812 13.375 13.45 13.3719 13.9187 13.3781C14.0375 13.3781 14.0687 13.3438 14.0687 13.2281C14.0625 12.5313 14.0625 11.8313 14.0687 11.1344C14.0719 10.6469 14.15 10.1719 14.375 9.73126C14.6969 9.10938 15.2062 8.70626 15.85 8.45626C16.375 8.25001 16.9281 8.17501 17.4844 8.16563C18.3906 8.15313 19.2969 8.15938 20.2031 8.15626C20.2875 8.15626 20.3562 8.15313 20.3562 8.27188C20.3531 9.13126 20.3531 9.99063 20.3531 10.85C20.3531 10.8594 20.35 10.8688 20.3375 10.9094C20.2844 10.9094 20.225 10.9094 20.1656 10.9094C19.6031 10.9094 19.0406 10.9063 18.4781 10.9094C18.1531 10.9094 17.8906 11.0406 17.725 11.325C17.675 11.4094 17.6438 11.5188 17.6438 11.6188C17.6344 12.15 17.6437 12.6813 17.6375 13.2125C17.6375 13.3375 17.675 13.3719 17.7969 13.3719C18.5781 13.3656 19.3594 13.3688 20.1406 13.3688C20.2031 13.3688 20.2625 13.3688 20.3687 13.3688C20.2594 14.2625 20.1531 15.1375 20.0437 16.0219C19.2312 16.0219 18.4406 16.0219 17.6344 16.0219C17.6344 18.65 17.6344 21.2625 17.6344 23.8906Z" fill="#2A2825"/>
</svg>
