<svg width="32" height="32" viewBox="0 0 32 32" fill="none" xmlns="http://www.w3.org/2000/svg">
<rect width="32" height="32" rx="16" fill="#9F9F9F"/>
<g clip-path="url(#clip0_801_145)">
<path d="M13.4219 23.8969C13.4219 23.8219 13.4219 23.7501 13.4219 23.6782C13.4219 20.3126 13.4219 16.9501 13.4219 13.5844C13.4219 13.4907 13.4157 13.4157 13.5532 13.4157C14.5469 13.4219 15.5438 13.4188 16.5375 13.4188C16.5625 13.4188 16.5875 13.4251 16.6282 13.4313C16.6282 13.8688 16.6282 14.3001 16.6282 14.7344C16.6407 14.7376 16.65 14.7438 16.6625 14.7469C16.7875 14.5844 16.9063 14.4157 17.0375 14.2563C17.4188 13.7876 17.8969 13.4438 18.4594 13.2376C18.7657 13.1251 19.1 13.0563 19.4219 13.0407C19.8657 13.0219 20.3188 13.0282 20.7563 13.1032C21.475 13.2251 22.1094 13.5438 22.6344 14.0657C23.1313 14.5563 23.4594 15.1469 23.6375 15.8126C23.7313 16.1657 23.7907 16.5282 23.8469 16.8876C23.8844 17.1376 23.9032 17.3938 23.9032 17.6438C23.9063 19.6751 23.9063 21.7063 23.9063 23.7376C23.9063 23.7876 23.9032 23.8376 23.9 23.9032C23.8407 23.9032 23.7907 23.9032 23.7407 23.9032C22.7813 23.9032 21.825 23.9001 20.8657 23.9063C20.7063 23.9063 20.6782 23.8532 20.6782 23.7094C20.6813 21.8407 20.6875 19.9688 20.675 18.1001C20.6719 17.7719 20.6407 17.4313 20.5563 17.1157C20.4032 16.5626 20.0532 16.1626 19.4969 15.9594C19.0282 15.7876 18.5532 15.7563 18.0719 15.8782C17.5407 16.0126 17.175 16.3657 16.9 16.8313C16.6875 17.1907 16.6469 17.5876 16.6438 17.9844C16.6313 19.8813 16.6375 21.7751 16.6375 23.6719C16.6375 23.7438 16.6375 23.8157 16.6375 23.8938C15.5594 23.8969 14.5 23.8969 13.4219 23.8969Z" fill="#25262A"/>
<path d="M11.4095 18.7063C11.4095 20.3719 11.4064 22.0375 11.4126 23.7031C11.4126 23.8531 11.3814 23.9094 11.2158 23.9062C10.2626 23.8969 9.30952 23.8969 8.3564 23.9062C8.20015 23.9062 8.16577 23.8531 8.16577 23.7094C8.1689 20.3625 8.1689 17.0125 8.16577 13.6656C8.16577 13.5313 8.20327 13.4844 8.34077 13.4844C9.30327 13.4906 10.2658 13.4906 11.2314 13.4844C11.3814 13.4844 11.4095 13.5406 11.4095 13.675C11.4095 15.3531 11.4095 17.0313 11.4095 18.7063Z" fill="#25262A"/>
<path d="M9.75318 8.14989C10.7813 8.12489 11.3969 8.87176 11.4001 9.78739C11.4032 10.7249 10.7469 11.4249 9.71568 11.4218C8.75631 11.4218 8.07818 10.7343 8.08131 9.76239C8.08443 8.85301 8.74381 8.11864 9.75318 8.14989Z" fill="#25262A"/>
</g>
<defs>
<clipPath id="clip0_801_145">
<rect width="16" height="16" fill="white" transform="translate(8 8)"/>
</clipPath>
</defs>
</svg>
