<svg width="91" height="32" viewBox="0 0 91 36" fill="none" xmlns="http://www.w3.org/2000/svg">
<path fill-rule="evenodd" clip-rule="evenodd" d="M17.8885 0.00118204C18.9053 -0.00973626 19.9659 0.0557735 20.6111 0.164956C21.2015 0.252303 22.0762 0.426996 22.5573 0.547097C23.0384 0.678116 23.8475 0.929237 24.3614 1.12577C24.8753 1.33321 25.6844 1.6826 26.1655 1.9228C26.6466 2.17392 27.4886 2.66525 28.0243 3.02555C28.5601 3.38585 29.4239 4.04095 29.9378 4.4886C30.4517 4.93625 31.2171 5.71145 31.6435 6.22461C32.0808 6.72685 32.7041 7.55664 33.043 8.0698C33.3929 8.58296 33.9068 9.48918 34.202 10.0897C34.4973 10.6902 34.9128 11.7165 35.1314 12.3825C35.3501 13.0485 35.6125 14.1185 35.7328 14.7846C35.8421 15.4506 35.9624 16.4769 35.9952 17.0774C36.039 17.6779 36.0171 18.7479 35.9515 19.4576C35.8968 20.1564 35.7328 21.2154 35.6125 21.805C35.4813 22.3837 35.208 23.3554 35.0002 23.9559C34.7925 24.5564 34.377 25.5172 34.0818 26.085C33.7975 26.6527 33.3273 27.4607 33.043 27.8865C32.7697 28.3123 32.2558 28.9893 31.9168 29.4042C31.5779 29.819 30.8344 30.5942 30.2658 31.1402C29.6972 31.6752 28.6913 32.4722 28.0243 32.9198C27.3573 33.3566 26.3077 33.9571 25.6735 34.2519C25.0393 34.5576 24.0334 34.9506 23.432 35.1472C22.8307 35.3328 21.7701 35.5839 21.0812 35.704C20.3924 35.8241 19.3099 35.9442 18.6757 35.9879C17.9104 36.0206 17.0466 35.9879 16.1062 35.8787C15.319 35.7804 14.1162 35.5512 13.4274 35.3765C12.7386 35.2018 11.8529 34.9179 11.4593 34.7541C11.0657 34.6013 10.3549 34.2737 9.87384 34.0335C9.39275 33.7933 8.6055 33.3347 8.1244 33.029C7.6433 32.7124 6.93259 32.1883 6.53897 31.8717C6.14534 31.5441 5.4893 30.9436 5.07381 30.5178C4.65832 30.092 4.03508 29.3714 3.69612 28.9237C3.35717 28.4761 2.8542 27.7664 2.60272 27.3406C2.3403 26.9148 1.92481 26.1287 1.67333 25.5937C1.41091 25.0587 1.05009 24.1415 0.864211 23.5738C0.678332 23.006 0.42685 22.0452 0.306575 21.4447C0.186301 20.8333 0.055093 19.6214 0.0222909 18.7151C-0.0214452 17.6997 0.000422841 16.6843 0.076961 16.0402C0.153499 15.4724 0.284707 14.6317 0.37218 14.184C0.470586 13.7364 0.711134 12.852 0.918881 12.2188C1.13756 11.5855 1.59679 10.5046 1.94668 9.81673C2.29657 9.12888 2.89794 8.12439 3.28063 7.5894C3.66332 7.0544 4.43964 6.12635 5.0082 5.52584C5.57677 4.92533 6.5171 4.08462 7.08567 3.65881C7.65424 3.22208 8.5727 2.63249 9.10846 2.32678C9.64423 2.02107 10.508 1.59525 11.0219 1.37689C11.5358 1.15852 12.3996 0.852809 12.9354 0.699953C13.4711 0.547097 14.4333 0.328731 15.0675 0.20863C15.8329 0.0776101 16.7732 0.00118204 17.8775 0.00118204H17.8885ZM44.7643 8.64847C46.3169 8.68123 47.4431 8.74674 47.7165 8.83408C47.957 8.91051 48.3616 9.17255 48.6131 9.42367C49.0614 9.8604 49.0723 9.89316 49.0723 10.581C49.0723 11.0833 49.0176 11.389 48.8755 11.6182C48.7662 11.8039 48.5256 12.0441 48.0445 12.3607L48.4491 12.5572C48.6787 12.6773 48.9739 12.9284 49.1051 13.125C49.2801 13.3652 49.3675 13.6709 49.3894 14.1295C49.4113 14.6535 49.3675 14.8719 49.1707 15.2213C48.9848 15.527 48.7334 15.7454 47.6181 16.3131L42.0855 16.3677L42.0636 12.5681C42.0527 10.3736 42.0964 8.7249 42.1511 8.68123C42.2057 8.63755 43.3866 8.61572 44.7643 8.64847ZM44.491 11.6728C45.8468 11.6728 46.3388 11.6292 46.4591 11.5637C46.6122 11.4872 46.6778 11.3453 46.6778 11.0723C46.6778 10.7994 46.6122 10.6574 46.4591 10.581C46.3388 10.5155 45.8468 10.4718 45.3657 10.4718H44.491V11.6728ZM44.491 14.6208C46.3716 14.5662 46.5794 14.5334 46.7762 14.3478C46.9074 14.2277 47.0167 14.0312 47.0167 13.9111C47.0167 13.791 46.9074 13.5945 46.7762 13.4744C46.5903 13.2997 46.3607 13.2451 45.5297 13.2123L44.5128 13.1796L44.491 14.6208ZM50.286 8.61572H56.8464V10.581H52.6915V11.5637H56.2997V13.3106H52.6915V14.4024H56.9557V16.3677H50.286V8.61572ZM63.2975 8.61572L64.3362 10.3081C64.9157 11.2361 65.4187 12.0004 65.4624 12.0004C65.5061 12.0004 66.0091 11.2361 67.6164 8.61572H69.8579V16.3677H67.5617L67.5071 12.6009L66.687 13.9329C65.8779 15.265 65.867 15.2759 65.4624 15.2759C65.0579 15.2759 65.0469 15.254 63.4615 12.7101L63.4068 16.3677H61.0013L60.9904 12.5572C60.9795 10.4718 61.0123 8.7249 61.056 8.68123C61.1107 8.64847 61.6355 8.61572 63.2975 8.61572ZM73.0288 8.61572L74.647 11.7274L76.2543 8.61572H77.5445C78.5176 8.61572 78.8238 8.64847 78.791 8.74674C78.7691 8.82316 78.1021 9.96959 75.8825 13.6927L75.8716 16.3677H73.3568V13.5835L71.8916 11.1815C71.0825 9.8604 70.4155 8.73582 70.4155 8.69215C70.4155 8.64847 70.995 8.61572 73.0288 8.61572ZM62.4774 19.4576C63.2975 19.4903 63.5927 19.5449 64.1722 19.8179C64.5658 19.9926 65.1016 20.3529 65.3531 20.604C65.6046 20.8551 65.9544 21.3137 66.1185 21.6303C66.3918 22.1544 66.4137 22.3073 66.4137 23.41C66.4137 24.4582 66.3809 24.6765 66.1513 25.1569C65.9982 25.4517 65.6483 25.9321 65.3531 26.216C65.0688 26.4999 64.5549 26.8711 64.205 27.0349C63.6255 27.3078 63.4724 27.3406 62.2587 27.3406C61.0123 27.3406 60.9139 27.3188 60.236 26.9912C59.7877 26.7728 59.3612 26.4562 59.066 26.1177C58.8036 25.823 58.4865 25.3644 58.3553 25.1023C58.1585 24.6874 58.1147 24.4145 58.1147 23.4646C58.1147 22.4492 58.1475 22.2418 58.3881 21.7177C58.5521 21.3792 58.8911 20.8988 59.1535 20.6368C59.4268 20.3747 59.8314 20.0581 60.0719 19.938C60.3125 19.8179 60.7389 19.6541 61.0013 19.5668C61.2966 19.4794 61.8979 19.4357 62.4774 19.4576ZM60.9904 22.0452C60.892 22.1981 60.7498 22.4492 60.6842 22.613C60.6186 22.7767 60.5749 23.1698 60.5749 23.4864C60.5749 23.8795 60.6514 24.1961 60.8155 24.4909C60.9467 24.7202 61.2309 25.0041 61.4387 25.1242C61.712 25.2661 61.9854 25.3207 62.3681 25.288C62.6961 25.2661 63.0569 25.1569 63.2428 25.0259C63.4287 24.9058 63.6692 24.611 63.7786 24.3817C63.9317 24.0651 63.9754 23.7812 63.9426 23.279C63.9207 22.8313 63.8332 22.5038 63.6802 22.3073C63.5599 22.1435 63.3412 21.9142 63.1881 21.805C63.046 21.6849 62.6961 21.5648 62.4228 21.543C62.1603 21.5102 61.7667 21.5539 61.559 21.6303C61.3512 21.7177 61.0888 21.9033 60.9904 22.0452ZM44.7643 19.5558C46.2404 19.5886 47.4431 19.665 47.6618 19.7305C47.8805 19.807 48.2085 19.9707 48.3944 20.1018C48.5912 20.2437 48.8208 20.4839 48.9192 20.6477C49.0176 20.8224 49.0832 21.2045 49.0832 21.5757C49.0832 21.9906 49.0176 22.3182 48.8755 22.5365C48.7662 22.7112 48.5365 22.9514 48.0445 23.2681L48.46 23.4755C48.6896 23.5847 48.9848 23.8358 49.1161 24.0324C49.2801 24.2835 49.3675 24.5892 49.3894 25.0478C49.4222 25.5718 49.3785 25.7793 49.1707 26.1287C48.9958 26.4453 48.7443 26.6527 47.629 27.2314L42.0855 27.286L42.0745 23.4755C42.0636 21.2809 42.0964 19.6432 42.1511 19.5886C42.2057 19.5449 43.3866 19.534 44.7643 19.5558ZM44.491 22.5911C45.8468 22.5911 46.3388 22.5365 46.4591 22.482C46.6231 22.3946 46.6778 22.2636 46.6778 21.9906C46.6778 21.7177 46.6231 21.5757 46.4591 21.4993C46.3388 21.4338 45.8468 21.3901 45.3657 21.3901H44.491V22.5911ZM44.491 25.5391C46.3716 25.4845 46.5903 25.4408 46.7871 25.2661C46.9183 25.146 47.0167 24.9495 47.0167 24.8294C47.0167 24.7093 46.9183 24.5128 46.7871 24.3927C46.5903 24.207 46.3607 24.1634 45.5406 24.1306L44.5238 24.0869L44.491 25.5391ZM50.3079 19.5122L52.6259 19.5668C53.8942 19.5995 55.1079 19.6759 55.3156 19.7415C55.5234 19.7961 55.9389 20.0144 56.245 20.2109C56.6496 20.473 56.8683 20.735 57.0979 21.1718C57.3166 21.6085 57.3931 21.936 57.3931 22.3728C57.3931 22.8095 57.3166 23.1371 57.0979 23.5738C56.8683 24.0324 56.6715 24.2398 55.753 24.7748L56.6277 25.954C57.1088 26.5982 57.5024 27.1659 57.5024 27.2096C57.5024 27.2532 56.9229 27.286 54.9329 27.286L54.0801 26.1942C53.4131 25.3316 53.1835 25.1023 52.6915 25.1023V27.286H50.286L50.3079 19.5122ZM52.6696 22.4492L52.6805 23.2572C53.8723 23.2572 54.3425 23.1916 54.4956 23.1152C54.6487 23.0388 54.8236 22.8532 54.8892 22.7112C54.9767 22.5038 54.9658 22.3509 54.8564 22.1107C54.758 21.8924 54.5721 21.7395 54.3206 21.6522C54.1129 21.5757 53.6974 21.5211 53.3913 21.5102C53.0851 21.5102 52.7899 21.543 52.7352 21.5757C52.6915 21.6194 52.6587 22.0125 52.6696 22.4492ZM67.5508 19.5449H69.9672L70.011 22.6348L72.3618 19.5449H73.7285C74.5705 19.5449 75.0953 19.5886 75.0953 19.6541C75.0953 19.7087 74.4611 20.5713 72.2524 23.3663L73.7285 25.2443C74.5377 26.2815 75.1718 27.1659 75.15 27.2096C75.1172 27.2532 74.4939 27.2969 72.4165 27.286L70.011 24.0979L69.9563 27.2969H67.3868L67.4743 26.6091C67.518 26.2378 67.5617 24.4909 67.5617 22.7331L67.5508 19.5449ZM82.4211 19.5449V21.5102H78.2662V22.4929H81.8744V24.2398H78.2662V25.3316H82.5304V27.2969H75.8607L75.8388 23.4974C75.8279 21.401 75.8607 19.665 75.9153 19.6214C75.9591 19.5777 77.4461 19.5449 82.4211 19.5449ZM83.5363 19.5231L85.8434 19.5777C87.6366 19.6104 88.2708 19.665 88.6535 19.807C88.9159 19.9052 89.3204 20.1127 89.5501 20.2655C89.7797 20.4075 90.0968 20.7678 90.2608 21.0517C90.5232 21.4884 90.556 21.6849 90.556 22.3837C90.556 22.9078 90.4904 23.3227 90.3811 23.5301C90.2826 23.7157 90.0093 24.0324 89.7687 24.2398C89.5391 24.4472 89.2658 24.6765 89.1564 24.7311C89.0034 24.8294 89.1018 24.9932 89.8453 25.9867C90.3264 26.62 90.72 27.1768 90.72 27.2205C90.72 27.2642 90.1514 27.2969 88.1614 27.3078L87.2867 26.2051C86.6307 25.3862 86.3464 25.1023 86.1605 25.1133C85.92 25.1133 85.92 25.146 85.92 27.2969H83.5145L83.5363 19.5231ZM85.8872 22.4601L85.909 23.2681C87.3305 23.2681 87.5601 23.2244 87.8006 23.0497C88.0084 22.8968 88.0958 22.7331 88.0958 22.5038C88.0958 22.3182 88.0521 22.078 87.9865 21.9579C87.9318 21.8378 87.6913 21.6849 87.4726 21.6303C87.243 21.5648 86.8275 21.5211 86.5541 21.5211C86.2808 21.5211 86.0184 21.5539 85.9637 21.5867C85.909 21.6303 85.8762 22.0234 85.8872 22.4601Z" fill="#216185"/>
<path d="M5.44556 21.8269L5.45649 17.9946V14.1731L8.15719 14.2059C10.8032 14.2387 10.8798 14.2496 11.4046 14.5116C11.8201 14.7191 12.006 14.9047 12.2028 15.2759C12.334 15.5489 12.4433 15.9092 12.4433 16.0948C12.4433 16.2695 12.3559 16.6188 12.2465 16.8591C12.1372 17.0993 11.8748 17.4159 11.2953 17.8199L11.7326 18.0491C11.9622 18.1692 12.2793 18.4531 12.4105 18.6606C12.6073 18.9554 12.6729 19.1956 12.6729 19.6978C12.6729 20.2 12.6073 20.4403 12.4215 20.735C12.2575 20.9752 11.9294 21.2373 10.8579 21.7723L5.44556 21.8269Z" fill="white"/>
<path d="M13.657 21.816V17.9946V14.1731H15.8985L16.9372 15.8327C17.5058 16.7389 17.9978 17.4923 18.0306 17.5141C18.0525 17.5251 18.5445 16.7826 20.1628 14.1731H22.4042V21.816H20.1081L20.0534 18.0491L19.2334 19.3921C18.4242 20.7023 18.4024 20.735 18.0306 20.735C17.6589 20.7241 17.6151 20.6805 16.0078 18.0491L15.9532 21.816H13.657Z" fill="white"/>
<path d="M23.7163 21.816V17.9946L23.7272 14.1622L26.4279 14.195C29.0521 14.2277 29.1396 14.2387 29.6535 14.5007C29.9487 14.6536 30.2767 14.9265 30.3861 15.1012C30.4954 15.2868 30.6157 15.5816 30.6485 15.7563C30.6922 15.9419 30.6703 16.3131 30.5938 16.5752C30.5063 16.9136 30.3314 17.1866 29.6207 17.8308L29.9706 17.9946C30.1564 18.0928 30.4517 18.3549 30.6266 18.5951C30.8672 18.9444 30.9328 19.1519 30.9328 19.6105C30.9328 19.9271 30.8453 20.3638 30.736 20.5822C30.6157 20.8333 30.3533 21.1063 30.058 21.2919C29.7847 21.4557 29.2708 21.6522 28.91 21.7068C28.5491 21.7723 27.2261 21.816 23.7163 21.816Z" fill="white"/>
<path d="M7.79632 17.1866L7.76351 16.5642L7.73071 15.931H8.69291C9.45829 15.931 9.69884 15.9746 9.85191 16.1275C9.96125 16.2258 10.0487 16.4223 10.0378 16.5533C10.0378 16.6952 9.96125 16.8809 9.87378 16.9682C9.78631 17.0556 9.54576 17.1647 9.35988 17.1975C9.16307 17.2302 8.72571 17.2412 7.79632 17.1866Z" fill="#216185"/>
<path d="M26.0561 17.1866L26.0233 16.5642L25.9905 15.931L26.9527 15.9419C27.7181 15.9419 27.9587 15.9856 28.1117 16.1275C28.2211 16.2367 28.3085 16.4114 28.3085 16.5315C28.3085 16.6516 28.1992 16.8481 28.068 16.9682C27.8712 17.1538 27.6853 17.1866 26.0561 17.1866Z" fill="#216185"/>
<path d="M7.74165 20.0908L7.75258 19.3702L7.76351 18.6496L8.85692 18.6933C9.87378 18.7261 9.96125 18.7479 10.1581 18.999C10.2783 19.1519 10.3767 19.3156 10.3767 19.3812C10.3767 19.4467 10.2783 19.6104 10.1581 19.7633C9.96125 20.0144 9.87378 20.0362 7.74165 20.0908Z" fill="#216185"/>
<path d="M26.0015 20.0908L26.0124 19.3702L26.0233 18.6496L27.1058 18.6933C27.8712 18.7151 28.232 18.7697 28.3523 18.8898C28.4507 18.9772 28.5272 19.2065 28.5272 19.3812C28.5272 19.5668 28.4507 19.7851 28.3523 19.8725C28.232 19.9926 27.8821 20.0472 26.0015 20.0908Z" fill="#216185"/>
</svg>
