<svg width="184" height="72" viewBox="0 0 184 72" fill="none" xmlns="http://www.w3.org/2000/svg">
<path fill-rule="evenodd" clip-rule="evenodd" d="M36.2818 0.00236407C38.3442 -0.0194725 40.4953 0.111547 41.8037 0.329913C43.0013 0.504606 44.7754 0.853991 45.7512 1.09419C46.7269 1.35623 48.368 1.85847 49.4103 2.25153C50.4526 2.66643 52.0937 3.3652 53.0694 3.8456C54.0452 4.34785 55.7528 5.33049 56.8395 6.0511C57.9261 6.77171 59.6781 8.0819 60.7204 8.9772C61.7627 9.8725 63.315 11.4229 64.1799 12.4492C65.067 13.4537 66.331 15.1133 67.0185 16.1396C67.7282 17.1659 68.7705 18.9784 69.3692 20.1794C69.968 21.3804 70.8107 23.433 71.2542 24.7651C71.6978 26.0971 72.23 28.2371 72.4739 29.5691C72.6957 30.9011 72.9397 32.9538 73.0062 34.1548C73.0949 35.3558 73.0505 37.4958 72.9175 38.9152C72.8066 40.3127 72.4739 42.4309 72.23 43.61C71.9639 44.7674 71.4095 46.7108 70.9881 47.9118C70.5668 49.1129 69.724 51.0345 69.1253 52.17C68.5487 53.3055 67.5951 54.9214 67.0185 55.773C66.4641 56.6246 65.4218 57.9785 64.7343 58.8083C64.0468 59.6381 62.5388 61.1885 61.3857 62.2803C60.2325 63.3503 58.1922 64.9444 56.8395 65.8397C55.4867 66.7132 53.3577 67.9142 52.0715 68.5037C50.7852 69.1152 48.745 69.9013 47.5253 70.2944C46.3056 70.6656 44.1544 71.1678 42.7573 71.408C41.3602 71.6482 39.1647 71.8884 37.8785 71.9758C36.3261 72.0413 34.5742 71.9758 32.667 71.7574C31.0703 71.5609 28.6308 71.1023 27.2337 70.7529C25.8366 70.4035 24.0403 69.8358 23.2419 69.5082C22.4436 69.2025 21.0021 68.5474 20.0263 68.067C19.0505 67.5866 17.4538 66.6695 16.4781 66.0581C15.5023 65.4248 14.0608 64.3766 13.2625 63.7434C12.4641 63.0883 11.1335 61.8873 10.2908 61.0356C9.44808 60.184 8.18402 58.7428 7.49654 57.8475C6.80907 56.9522 5.78895 55.5328 5.27889 54.6812C4.74665 53.8296 3.90394 52.2573 3.39388 51.1873C2.86164 50.1173 2.12981 48.2831 1.75281 47.1476C1.37581 46.0121 0.865745 44.0904 0.621802 42.8894C0.37786 41.6666 0.111741 39.2427 0.0452108 37.4303C-0.0434956 35.3995 0.000857615 33.3687 0.156094 32.0803C0.31133 30.9448 0.577449 29.2634 0.754862 28.3681C0.954451 27.4728 1.44234 25.704 1.86369 24.4375C2.30722 23.171 3.23864 21.0092 3.94829 19.6335C4.65794 18.2578 5.87765 16.2488 6.65383 15.1788C7.43001 14.1088 9.00455 12.2527 10.1577 11.0517C11.3109 9.85067 13.2181 8.16925 14.3713 7.31762C15.5245 6.44416 17.3873 5.26498 18.474 4.65356C19.5606 4.04213 21.3126 3.19051 22.3549 2.75377C23.3972 2.31704 25.1491 1.70562 26.2358 1.39991C27.3224 1.09419 29.274 0.657462 30.5602 0.417259C32.1126 0.15522 34.0197 0.00236407 36.2596 0.00236407H36.2818ZM90.7918 17.2969C93.9409 17.3625 96.2251 17.4935 96.7795 17.6682C97.2674 17.821 98.0879 18.3451 98.598 18.8473C99.5072 19.7208 99.5294 19.7863 99.5294 21.162C99.5294 22.1665 99.4185 22.7779 99.1302 23.2365C98.9084 23.6077 98.4206 24.0881 97.4448 24.7214L98.2653 25.1144C98.731 25.3546 99.3298 25.8569 99.5959 26.2499C99.9507 26.7304 100.128 27.3418 100.173 28.2589C100.217 29.3071 100.128 29.7438 99.729 30.4426C99.352 31.054 98.8419 31.4907 96.5799 32.6262L85.3585 32.7354L85.3142 25.1363C85.292 20.7471 85.3807 17.4498 85.4916 17.3625C85.6025 17.2751 87.9976 17.2314 90.7918 17.2969V17.2969ZM90.2374 23.3457C92.9873 23.3457 93.9852 23.2583 94.2292 23.1273C94.5397 22.9745 94.6727 22.6906 94.6727 22.1447C94.6727 21.5988 94.5397 21.3149 94.2292 21.162C93.9852 21.031 92.9873 20.9437 92.0115 20.9437H90.2374V23.3457ZM90.2374 29.2416C94.0518 29.1324 94.4731 29.0669 94.8723 28.6956C95.1384 28.4554 95.3602 28.0624 95.3602 27.8222C95.3602 27.582 95.1384 27.1889 94.8723 26.9487C94.4953 26.5993 94.0296 26.4901 92.3442 26.4246L90.2817 26.3591L90.2374 29.2416ZM101.991 17.2314H115.297V21.162H106.87V23.1273H114.188V26.6212H106.87V28.8048H115.519V32.7354H101.991V17.2314ZM128.381 17.2314L130.488 20.6161C131.663 22.4722 132.683 24.0008 132.772 24.0008C132.861 24.0008 133.881 22.4722 137.141 17.2314H141.687V32.7354H137.03L136.919 25.2018L135.256 27.8659C133.615 30.5299 133.593 30.5518 132.772 30.5518C131.952 30.5518 131.929 30.5081 128.714 25.4202L128.603 32.7354H123.724L123.702 25.1144C123.68 20.9437 123.746 17.4498 123.835 17.3625C123.946 17.2969 125.01 17.2314 128.381 17.2314ZM148.118 17.2314L151.4 23.4549L154.66 17.2314H157.277C159.251 17.2314 159.872 17.2969 159.805 17.4935C159.761 17.6463 158.408 19.9392 153.906 27.3854L153.884 32.7354H148.784V27.1671L145.812 22.363C144.171 19.7208 142.818 17.4716 142.818 17.3843C142.818 17.2969 143.993 17.2314 148.118 17.2314V17.2314ZM126.718 38.9152C128.381 38.9807 128.98 39.0899 130.155 39.6358C130.954 39.9852 132.04 40.7058 132.55 41.208C133.06 41.7103 133.77 42.6274 134.103 43.2607C134.657 44.3088 134.701 44.6145 134.701 46.82C134.701 48.9163 134.635 49.3531 134.169 50.3139C133.859 50.9035 133.149 51.8643 132.55 52.432C131.974 52.9998 130.931 53.7422 130.222 54.0698C129.046 54.6157 128.736 54.6812 126.274 54.6812C123.746 54.6812 123.547 54.6375 122.172 53.9824C121.262 53.5457 120.398 52.9124 119.799 52.2355C119.267 51.6459 118.623 50.7288 118.357 50.2047C117.958 49.3749 117.869 48.829 117.869 46.9292C117.869 44.8984 117.936 44.4835 118.424 43.4353C118.756 42.7584 119.444 41.7976 119.976 41.2735C120.531 40.7494 121.351 40.1162 121.839 39.876C122.327 39.6358 123.192 39.3082 123.724 39.1335C124.323 38.9588 125.543 38.8715 126.718 38.9152ZM123.702 44.0904C123.502 44.3962 123.214 44.8984 123.081 45.2259C122.948 45.5535 122.859 46.3396 122.859 46.9729C122.859 47.759 123.014 48.3922 123.347 48.9818C123.613 49.4404 124.19 50.0082 124.611 50.2484C125.166 50.5322 125.72 50.6414 126.496 50.5759C127.161 50.5322 127.893 50.3139 128.27 50.0518C128.647 49.8116 129.135 49.222 129.357 48.7635C129.667 48.1302 129.756 47.5625 129.69 46.558C129.645 45.6627 129.468 45.0076 129.157 44.6145C128.913 44.287 128.47 43.8284 128.159 43.61C127.871 43.3698 127.161 43.1296 126.607 43.086C126.075 43.0204 125.276 43.1078 124.855 43.2607C124.434 43.4353 123.901 43.8066 123.702 44.0904V44.0904ZM90.7918 39.1117C93.7856 39.1772 96.2251 39.3301 96.6686 39.4611C97.1121 39.6139 97.7774 39.9415 98.1544 40.2035C98.5536 40.4874 99.0193 40.9678 99.2189 41.2954C99.4185 41.6447 99.5516 42.409 99.5516 43.1515C99.5516 43.9813 99.4185 44.6364 99.1302 45.0731C98.9084 45.4225 98.4427 45.9029 97.4448 46.5361L98.2875 46.951C98.7532 47.1694 99.352 47.6716 99.6181 48.0647C99.9507 48.5669 100.128 49.1784 100.173 50.0955C100.239 51.1437 100.15 51.5586 99.729 52.2573C99.3741 52.8906 98.8641 53.3055 96.6021 54.4628L85.3585 54.572L85.3364 46.951C85.3142 42.5619 85.3807 39.2864 85.4916 39.1772C85.6025 39.0899 87.9976 39.068 90.7918 39.1117V39.1117ZM90.2374 45.1823C92.9873 45.1823 93.9852 45.0731 94.2292 44.9639C94.5618 44.7892 94.6727 44.5272 94.6727 43.9813C94.6727 43.4353 94.5618 43.1515 94.2292 42.9986C93.9852 42.8676 92.9873 42.7802 92.0115 42.7802H90.2374V45.1823ZM90.2374 51.0782C94.0518 50.969 94.4953 50.8816 94.8945 50.5322C95.1606 50.292 95.3602 49.899 95.3602 49.6588C95.3602 49.4186 95.1606 49.0255 94.8945 48.7853C94.4953 48.4141 94.0296 48.3267 92.3663 48.2612L90.3039 48.1739L90.2374 51.0782ZM102.035 39.0244L106.737 39.1335C109.309 39.199 111.771 39.3519 112.192 39.4829C112.614 39.5921 113.456 40.0288 114.077 40.4219C114.898 40.946 115.341 41.4701 115.807 42.3435C116.251 43.217 116.406 43.8721 116.406 44.7455C116.406 45.619 116.251 46.2741 115.807 47.1476C115.341 48.0647 114.942 48.4796 113.079 49.5496L114.853 51.9079C115.829 53.1963 116.628 54.3318 116.628 54.4191C116.628 54.5065 115.452 54.572 111.416 54.572L109.686 52.3883C108.333 50.6633 107.868 50.2047 106.87 50.2047V54.572H101.991L102.035 39.0244ZM106.825 44.8984L106.848 46.5143C109.265 46.5143 110.218 46.3833 110.529 46.2304C110.839 46.0776 111.194 45.7064 111.327 45.4225C111.505 45.0076 111.483 44.7019 111.261 44.2215C111.061 43.7847 110.684 43.479 110.174 43.3043C109.753 43.1515 108.91 43.0423 108.289 43.0204C107.668 43.0204 107.069 43.086 106.959 43.1515C106.87 43.2388 106.803 44.0249 106.825 44.8984V44.8984ZM137.008 39.0899H141.909L141.998 45.2696L146.766 39.0899H149.538C151.245 39.0899 152.31 39.1772 152.31 39.3082C152.31 39.4174 151.023 41.1425 146.544 46.7327L149.538 50.4886C151.179 52.563 152.465 54.3318 152.421 54.4191C152.354 54.5065 151.09 54.5938 146.876 54.572L141.998 48.1957L141.887 54.5938H136.675L136.853 53.2181C136.941 52.4757 137.03 48.9818 137.03 45.4661L137.008 39.0899ZM167.168 39.0899V43.0204H158.741V44.9857H166.059V48.4796H158.741V50.6633H167.39V54.5938H153.862L153.818 46.9947C153.795 42.8021 153.862 39.3301 153.973 39.2427C154.062 39.1554 157.078 39.0899 167.168 39.0899V39.0899ZM169.43 39.0462L174.109 39.1554C177.746 39.2209 179.032 39.3301 179.809 39.6139C180.341 39.8105 181.161 40.2254 181.627 40.5311C182.093 40.815 182.736 41.5356 183.069 42.1033C183.601 42.9768 183.667 43.3698 183.667 44.7674C183.667 45.8155 183.534 46.6453 183.313 47.0602C183.113 47.4314 182.559 48.0647 182.071 48.4796C181.605 48.8945 181.051 49.3531 180.829 49.4622C180.518 49.6588 180.718 49.9863 182.226 51.9735C183.202 53.24 184 54.3536 184 54.441C184 54.5283 182.847 54.5938 178.811 54.6157L177.037 52.4102C175.706 50.7724 175.129 50.2047 174.752 50.2265C174.264 50.2265 174.264 50.292 174.264 54.5938H169.386L169.43 39.0462ZM174.198 44.9202L174.242 46.5361C177.125 46.5361 177.591 46.4488 178.079 46.0994C178.5 45.7937 178.678 45.4661 178.678 45.0076C178.678 44.6364 178.589 44.156 178.456 43.9157C178.345 43.6755 177.857 43.3698 177.414 43.2607C176.948 43.1296 176.105 43.0423 175.551 43.0423C174.996 43.0423 174.464 43.1078 174.353 43.1733C174.242 43.2607 174.176 44.0468 174.198 44.9202Z" fill="#F8F9FC"/>
<path d="M11.043 43.6535L11.0651 35.9889V28.3461L16.5428 28.4116C21.9095 28.4771 22.0647 28.4989 23.1292 29.023C23.9719 29.4379 24.3489 29.8091 24.7481 30.5516C25.0142 31.0975 25.236 31.8181 25.236 32.1893C25.236 32.5387 25.0586 33.2375 24.8368 33.7179C24.615 34.1983 24.0828 34.8315 22.9074 35.6395L23.7945 36.098C24.2602 36.3382 24.9033 36.906 25.1695 37.3209C25.5686 37.9105 25.7017 38.3909 25.7017 39.3954C25.7017 40.3999 25.5686 40.8803 25.1916 41.4698C24.859 41.9502 24.1937 42.4743 22.0204 43.5443L11.043 43.6535Z" fill="#216185"/>
<path d="M27.6976 43.6317V35.9889V28.3461H32.2438L34.3506 31.6652C35.5037 33.4777 36.5017 34.9844 36.5682 35.0281C36.6126 35.0499 37.6105 33.565 40.8927 28.3461H45.4389V43.6317H40.7818L40.6709 36.098L39.0076 38.7839C37.3666 41.4043 37.3222 41.4698 36.5682 41.4698C35.8142 41.448 35.7255 41.3607 32.4656 36.098L32.3547 43.6317H27.6976Z" fill="#216185"/>
<path d="M48.1 43.6317V35.9889L48.1222 28.3242L53.5998 28.3897C58.9222 28.4552 59.0996 28.4771 60.1419 29.0012C60.7407 29.3069 61.406 29.8528 61.6278 30.2022C61.8495 30.5734 62.0935 31.163 62.16 31.5124C62.2487 31.8836 62.2044 32.626 62.0491 33.1501C61.8717 33.827 61.5169 34.373 60.0754 35.6613L60.7851 35.9889C61.1621 36.1854 61.7608 36.7095 62.1157 37.1899C62.6035 37.8886 62.7366 38.3035 62.7366 39.2207C62.7366 39.8539 62.5592 40.7274 62.3374 41.1641C62.0935 41.6664 61.5612 42.2123 60.9625 42.5835C60.4081 42.9111 59.3658 43.3041 58.6339 43.4133C57.9021 43.5443 55.2187 43.6317 48.1 43.6317Z" fill="#216185"/>
<path d="M15.8127 34.3725L15.7462 33.1279L15.6797 31.8613H17.6312C19.1836 31.8613 19.6715 31.9487 19.9819 32.2544C20.2037 32.4509 20.3811 32.844 20.3589 33.106C20.3589 33.3899 20.2037 33.7611 20.0263 33.9358C19.8489 34.1105 19.361 34.3289 18.984 34.3944C18.5848 34.4599 17.6978 34.4817 15.8127 34.3725Z" fill="#F8F9FC"/>
<path d="M52.8476 34.3725L52.7811 33.1279L52.7146 31.8613L54.6661 31.8832C56.2185 31.8832 56.7064 31.9705 57.0168 32.2544C57.2386 32.4728 57.416 32.8221 57.416 33.0623C57.416 33.3025 57.1943 33.6956 56.9281 33.9358C56.529 34.307 56.152 34.3725 52.8476 34.3725Z" fill="#F8F9FC"/>
<path d="M15.7019 40.1811L15.724 38.7399L15.7462 37.2986L17.9639 37.386C20.0263 37.4515 20.2037 37.4952 20.6029 37.9974C20.8468 38.3031 21.0464 38.6307 21.0464 38.7617C21.0464 38.8927 20.8468 39.2203 20.6029 39.526C20.2037 40.0282 20.0263 40.0719 15.7019 40.1811Z" fill="#F8F9FC"/>
<path d="M52.7368 40.1811L52.7589 38.7399L52.7811 37.2986L54.9766 37.386C56.529 37.4297 57.2608 37.5388 57.5047 37.779C57.7043 37.9537 57.8596 38.4123 57.8596 38.7617C57.8596 39.1329 57.7043 39.5696 57.5047 39.7443C57.2608 39.9845 56.5511 40.0937 52.7368 40.1811Z" fill="#F8F9FC"/>
</svg>
