<svg width="64" height="64" viewBox="0 0 64 64" fill="none" xmlns="http://www.w3.org/2000/svg">
<path d="M34 0C37.3137 0 40 2.68629 40 6L39.9998 14H42C45.1954 14 47.8073 16.4978 47.9898 19.6475L48 20L47.9998 27.422L54.4196 29.7217C58.4493 31.1644 60.607 35.5071 59.384 39.5589L59.2551 39.95C59.2001 40.1035 59.1405 40.2552 59.0763 40.405L51.1474 58.9059C49.8868 61.8473 46.9945 63.7545 43.7942 63.7545H19.707C16.5068 63.7545 13.6145 61.8473 12.3538 58.9059L4.42868 40.4139C2.68823 36.3528 4.56944 31.6498 8.63048 29.9093C8.78398 29.8436 8.93951 29.7826 9.09683 29.7265L15.9998 27.266L16 20C16 16.8046 18.4979 14.1927 21.6475 14.0102L22 14H23.9998L24 6C24 2.80464 26.4979 0.192678 29.6475 0.0101854L30 0L34 0ZM30.543 36.7651L30.1037 36.9029L10.2978 43.958L16.0304 57.3302C16.6187 58.7029 17.9177 59.6251 19.3892 59.7419L19.707 59.7545H43.7942C45.3943 59.7545 46.8405 58.8009 47.4708 57.3302L53.2858 43.758L34.1398 36.9059C32.9801 36.4908 31.7245 36.4438 30.543 36.7651ZM33.8333 26.6005C32.5286 26.1334 31.1026 26.1324 29.7972 26.5974L10.322 33.5384L10.2062 33.5859L9.92358 33.7201C8.09017 34.6794 7.27647 36.9044 8.10526 38.8382L8.71979 40.274L28.7612 33.1349C30.7694 32.4194 32.9491 32.3659 34.9828 32.9741L35.488 33.14L54.8638 40.076L55.3998 38.8293L55.4891 38.6018C56.2337 36.5219 55.1513 34.2323 53.0714 33.4877L33.8333 26.6005ZM42 18H22C20.9744 18 20.129 18.7721 20.0135 19.7668L20 20L19.9998 25.84L28.4547 22.8295C30.4629 22.114 32.6426 22.0604 34.6763 22.6687L35.1815 22.8345L43.9998 25.992L44 20C44 18.9743 43.2279 18.129 42.2333 18.0135L42 18ZM34 4H30C28.8955 4 28 4.89543 28 6V14H36V6C36 4.97433 35.2279 4.12899 34.2333 4.01346L34 4Z" fill="#216185"/>
</svg>
