<svg width="30" height="30" viewBox="0 0 22 24" fill="none" xmlns="http://www.w3.org/2000/svg">
<path d="M11.7501 0C12.9927 0 14.0001 1.00736 14.0001 2.25L14 5.25H14.7501C15.9483 5.25 16.9278 6.18669 16.9963 7.3678L17.0001 7.5L17 10.2833L19.4074 11.1456C20.9186 11.6866 21.7277 13.3152 21.2691 14.8346L21.2207 14.9813C21.2001 15.0388 21.1778 15.0957 21.1537 15.1519L18.1803 22.0897C17.7076 23.1928 16.623 23.9079 15.4229 23.9079H6.39018C5.1901 23.9079 4.10548 23.1928 3.63275 22.0897L0.660815 15.1552C0.00814775 13.6323 0.713602 11.8687 2.23649 11.216C2.29406 11.1913 2.35238 11.1685 2.41137 11.1475L4.99998 10.2248L5.00007 7.5C5.00007 6.30174 5.93676 5.32225 7.11787 5.25382L7.25007 5.25H7.99998L8.00007 2.25C8.00007 1.05174 8.93676 0.0722543 10.1179 0.00381952L10.2501 0L11.7501 0ZM10.4537 13.7869L10.289 13.8386L2.86173 16.4842L5.01146 21.4988C5.23207 22.0136 5.71919 22.3594 6.27102 22.4032L6.39018 22.4079H15.4229C16.0229 22.4079 16.5652 22.0504 16.8016 21.4988L18.9822 16.4093L11.8025 13.8397C11.3676 13.684 10.8967 13.6664 10.4537 13.7869ZM11.6875 9.97519C11.1983 9.80004 10.6635 9.79964 10.174 9.97404L2.87082 12.5769L2.82737 12.5947L2.7214 12.645C2.03387 13.0048 1.72874 13.8391 2.03953 14.5643L2.26998 15.1027L9.78552 12.4256C10.5386 12.1573 11.356 12.1372 12.1186 12.3653L12.3081 12.4275L19.574 15.0285L19.775 14.561L19.8085 14.4757C20.0877 13.6957 19.6818 12.8371 18.9018 12.5579L11.6875 9.97519ZM14.7501 6.75H7.25007C6.86544 6.75 6.54844 7.03953 6.50512 7.41253L6.50007 7.5L6.49998 9.69L9.67058 8.56105C10.4237 8.29273 11.241 8.27267 12.0037 8.50076L12.1931 8.56295L15.5 9.747L15.5001 7.5C15.5001 7.11537 15.2105 6.79837 14.8375 6.75505L14.7501 6.75ZM11.7501 1.5H10.2501C9.83586 1.5 9.50007 1.83579 9.50007 2.25V5.25H12.5001V2.25C12.5001 1.86537 12.2105 1.54837 11.8375 1.50505L11.7501 1.5Z" fill="#25262A"/>
</svg>
