<svg width="192" height="64" viewBox="0 0 192 64" fill="none" xmlns="http://www.w3.org/2000/svg">
<g clip-path="url(#clip0_482_6337)">
<path d="M34 0C37.3137 0 40 2.68629 40 6L39.9998 14H42C45.1954 14 47.8073 16.4978 47.9898 19.6475L48 20L47.9998 27.422L54.4196 29.7217C58.4493 31.1644 60.607 35.5071 59.384 39.5589L59.2551 39.95C59.2001 40.1035 59.1405 40.2552 59.0763 40.405L51.1474 58.9059C49.8868 61.8474 46.9945 63.7545 43.7942 63.7545H19.707C16.5068 63.7545 13.6145 61.8474 12.3538 58.9059L4.42868 40.4139C2.68823 36.3528 4.56944 31.6498 8.63048 29.9094C8.78398 29.8436 8.93951 29.7826 9.09683 29.7265L15.9998 27.266L16 20C16 16.8046 18.4979 14.1927 21.6475 14.0102L22 14H23.9998L24 6C24 2.80464 26.4979 0.192678 29.6475 0.0101854L30 0L34 0ZM30.543 36.7651L30.1037 36.9029L10.2978 43.958L16.0304 57.3302C16.6187 58.7029 17.9177 59.6251 19.3892 59.7419L19.707 59.7545H43.7942C45.3943 59.7545 46.8405 58.8009 47.4708 57.3302L53.2858 43.758L34.1398 36.9059C32.9801 36.4908 31.7245 36.4438 30.543 36.7651ZM33.8333 26.6005C32.5286 26.1334 31.1026 26.1324 29.7972 26.5975L10.322 33.5384L10.2062 33.5859L9.92358 33.7201C8.09017 34.6794 7.27647 36.9044 8.10526 38.8382L8.71979 40.274L28.7612 33.1349C30.7694 32.4194 32.9491 32.3659 34.9828 32.9741L35.488 33.14L54.8638 40.076L55.3998 38.8293L55.4891 38.6018C56.2337 36.5219 55.1513 34.2323 53.0714 33.4877L33.8333 26.6005ZM42 18H22C20.9744 18 20.129 18.7721 20.0135 19.7668L20 20L19.9998 25.84L28.4547 22.8295C30.4629 22.114 32.6426 22.0604 34.6763 22.6687L35.1815 22.8345L43.9998 25.992L44 20C44 18.9743 43.2279 18.129 42.2333 18.0135L42 18ZM34 4H30C28.8955 4 28 4.89543 28 6V14H36V6C36 4.97433 35.2279 4.12899 34.2333 4.01346L34 4Z" fill="#216185"/>
</g>
<g clip-path="url(#clip1_482_6337)">
<path d="M98 0C101.314 0 104 2.68629 104 6L104 14H106C109.195 14 111.807 16.4978 111.99 19.6475L112 20L112 27.422L118.42 29.7217C122.449 31.1644 124.607 35.5071 123.384 39.5589L123.255 39.95C123.2 40.1035 123.141 40.2552 123.076 40.405L115.147 58.9059C113.887 61.8474 110.994 63.7545 107.794 63.7545H83.707C80.5068 63.7545 77.6145 61.8474 76.3538 58.9059L68.4287 40.4139C66.6882 36.3528 68.5694 31.6498 72.6305 29.9094C72.784 29.8436 72.9395 29.7826 73.0968 29.7265L79.9998 27.266L80 20C80 16.8046 82.4979 14.1927 85.6475 14.0102L86 14H87.9998L88 6C88 2.80464 90.4979 0.192678 93.6475 0.0101854L94 0L98 0ZM94.543 36.7651L94.1037 36.9029L74.2978 43.958L80.0304 57.3302C80.6187 58.7029 81.9177 59.6251 83.3892 59.7419L83.707 59.7545H107.794C109.394 59.7545 110.84 58.8009 111.471 57.3302L117.286 43.758L98.1398 36.9059C96.9801 36.4908 95.7245 36.4438 94.543 36.7651ZM97.8333 26.6005C96.5286 26.1334 95.1026 26.1324 93.7972 26.5975L74.322 33.5384L74.2062 33.5859L73.9236 33.7201C72.0902 34.6794 71.2765 36.9044 72.1053 38.8382L72.7198 40.274L92.7612 33.1349C94.7694 32.4194 96.9491 32.3659 98.9828 32.9741L99.488 33.14L118.864 40.076L119.4 38.8293L119.489 38.6018C120.234 36.5219 119.151 34.2323 117.071 33.4877L97.8333 26.6005ZM106 18H86C84.9744 18 84.129 18.7721 84.0135 19.7668L84 20L83.9998 25.84L92.4547 22.8295C94.4629 22.114 96.6426 22.0604 98.6763 22.6687L99.1815 22.8345L108 25.992L108 20C108 18.9743 107.228 18.129 106.233 18.0135L106 18ZM98 4H94C92.8955 4 92 4.89543 92 6V14H100V6C100 4.97433 99.2279 4.12899 98.2333 4.01346L98 4Z" fill="#216185"/>
</g>
<g clip-path="url(#clip2_482_6337)">
<path d="M162 0C165.314 0 168 2.68629 168 6L168 14H170C173.195 14 175.807 16.4978 175.99 19.6475L176 20L176 27.422L182.42 29.7217C186.449 31.1644 188.607 35.5071 187.384 39.5589L187.255 39.95C187.2 40.1035 187.141 40.2552 187.076 40.405L179.147 58.9059C177.887 61.8474 174.994 63.7545 171.794 63.7545H147.707C144.507 63.7545 141.614 61.8474 140.354 58.9059L132.429 40.4139C130.688 36.3528 132.569 31.6498 136.63 29.9094C136.784 29.8436 136.94 29.7826 137.097 29.7265L144 27.266L144 20C144 16.8046 146.498 14.1927 149.647 14.0102L150 14H152L152 6C152 2.80464 154.498 0.192678 157.647 0.0101854L158 0L162 0ZM158.543 36.7651L158.104 36.9029L138.298 43.958L144.03 57.3302C144.619 58.7029 145.918 59.6251 147.389 59.7419L147.707 59.7545H171.794C173.394 59.7545 174.84 58.8009 175.471 57.3302L181.286 43.758L162.14 36.9059C160.98 36.4908 159.724 36.4438 158.543 36.7651ZM161.833 26.6005C160.529 26.1334 159.103 26.1324 157.797 26.5975L138.322 33.5384L138.206 33.5859L137.924 33.7201C136.09 34.6794 135.276 36.9044 136.105 38.8382L136.72 40.274L156.761 33.1349C158.769 32.4194 160.949 32.3659 162.983 32.9741L163.488 33.14L182.864 40.076L183.4 38.8293L183.489 38.6018C184.234 36.5219 183.151 34.2323 181.071 33.4877L161.833 26.6005ZM170 18H150C148.974 18 148.129 18.7721 148.013 19.7668L148 20L148 25.84L156.455 22.8295C158.463 22.114 160.643 22.0604 162.676 22.6687L163.181 22.8345L172 25.992L172 20C172 18.9743 171.228 18.129 170.233 18.0135L170 18ZM162 4H158C156.895 4 156 4.89543 156 6V14H164V6C164 4.97433 163.228 4.12899 162.233 4.01346L162 4Z" fill="#216185"/>
</g>
<defs>
<clipPath id="clip0_482_6337">
<rect width="64" height="64" fill="white"/>
</clipPath>
<clipPath id="clip1_482_6337">
<rect width="64" height="64" fill="white" transform="translate(64)"/>
</clipPath>
<clipPath id="clip2_482_6337">
<rect width="64" height="64" fill="white" transform="translate(128)"/>
</clipPath>
</defs>
</svg>
