<svg width="32" height="32" viewBox="0 0 32 32" fill="none" xmlns="http://www.w3.org/2000/svg">
<rect width="32" height="32" rx="16" fill="#9F9F9F"/>
<path d="M16.1376 22.0311C14.3532 21.9749 12.6564 21.9311 10.9595 21.8655C10.5939 21.8499 10.222 21.7936 9.86573 21.7092C9.19698 21.553 8.73448 21.1499 8.49698 20.4905C8.30636 19.9592 8.23761 19.4124 8.18761 18.8561C8.07823 17.5499 8.07823 16.2436 8.13136 14.9374C8.16261 14.1999 8.18136 13.4561 8.37823 12.7405C8.49698 12.3124 8.64073 11.8936 8.98761 11.5842C9.35323 11.2561 9.78136 11.0592 10.2689 11.0374C11.6064 10.9717 12.9407 10.8905 14.2782 10.878C16.0782 10.8592 17.8814 10.8842 19.6814 10.9186C20.4595 10.9342 21.2439 10.9749 22.0157 11.0749C22.722 11.1686 23.2501 11.5624 23.5314 12.2499C23.747 12.778 23.8282 13.3311 23.8751 13.8936C23.997 15.303 24.0001 16.7124 23.9314 18.1217C23.897 18.8374 23.8626 19.5561 23.6595 20.253C23.4282 21.053 22.9376 21.5811 22.1189 21.7624C21.8001 21.8311 21.4689 21.8561 21.1439 21.8686C19.4439 21.928 17.747 21.9811 16.1376 22.0311ZM14.4095 18.478C15.8345 17.7405 17.2439 17.0092 18.6814 16.2624C17.247 15.5124 15.8376 14.778 14.4095 14.0311C14.4095 15.5217 14.4095 16.9874 14.4095 18.478Z" fill="#25262A"/>
</svg>
